# xmcd
#
# Track frame offsets:
#	150
#	8513
#	18099
#	28189
#	37445
#	45050
#	58306
#	67270
#	79098
#	86784
#	101009
#
# Disc length: 2166 seconds
#
# Revision: 0
# Processed by: cddbd v1.5.1PL0 Copyright (c) Steve Scherf et al.
# Submitted via: dBpowerAMP V4.0
#
DISCID=8b08740b
DTITLE=EDUARDO SAnfoneiro - instrumental
DYEAR=2005
DGENRE=Acid Jazz
TTITLE0=NOCA DO ACORDEON
TTITLE1=FEIRA DE MANGAIO
TTITLE2=IMBALANÇA
TTITLE3=QUI NEM GILÓ
TTITLE4=XANDUZINHA
TTITLE5=BAIÃO DA SAUDADE
TTITLE6=TEMA DE LARA
TTITLE7=SAUDADES  DE OURO PRETO
TTITLE8=SAUDADES DE MATÃO
TTITLE9=QUARTO CENTENÁRIO
TTITLE10=POUT-POURRI - QUADRILHAS
EXTD=
EXTT0=
EXTT1=
EXTT2=
EXTT3=
EXTT4=
EXTT5=
EXTT6=
EXTT7=
EXTT8=
EXTT9=
EXTT10=
PLAYORDER=
